<mxfile host="Electron" modified="2024-02-14T01:55:20.337Z" agent="Mozilla/5.0 (Windows NT 10.0; Win64; x64) AppleWebKit/537.36 (KHTML, like Gecko) draw.io/23.0.2 Chrome/120.0.6099.109 Electron/28.1.0 Safari/537.36" etag="xcWc0Ihiv7yBXauyM7nE" version="23.0.2" type="device">
  <diagram name="Page-1" id="gs7T1FptxhziFKKdWrkF">
    <mxGraphModel dx="1430" dy="830" grid="1" gridSize="10" guides="1" tooltips="1" connect="1" arrows="1" fold="1" page="1" pageScale="1" pageWidth="850" pageHeight="1100" math="0" shadow="0">
      <root>
        <mxCell id="0" />
        <mxCell id="1" parent="0" />
        <mxCell id="z43PwPkk5c5M_sg6hUyl-8" value="WaveInfo" style="swimlane;fontStyle=0;childLayout=stackLayout;horizontal=1;startSize=26;fillColor=none;horizontalStack=0;resizeParent=1;resizeParentMax=0;resizeLast=0;collapsible=1;marginBottom=0;whiteSpace=wrap;html=1;" vertex="1" parent="1">
          <mxGeometry x="323" y="20" width="205" height="182" as="geometry" />
        </mxCell>
        <mxCell id="z43PwPkk5c5M_sg6hUyl-9" value="EnemiesToSpawn : TArray&amp;lt;Enemy&amp;gt;" style="text;strokeColor=none;fillColor=none;align=left;verticalAlign=top;spacingLeft=4;spacingRight=4;overflow=hidden;rotatable=0;points=[[0,0.5],[1,0.5]];portConstraint=eastwest;whiteSpace=wrap;html=1;" vertex="1" parent="z43PwPkk5c5M_sg6hUyl-8">
          <mxGeometry y="26" width="205" height="26" as="geometry" />
        </mxCell>
        <mxCell id="z43PwPkk5c5M_sg6hUyl-10" value="WaveTrigger : int32" style="text;strokeColor=none;fillColor=none;align=left;verticalAlign=top;spacingLeft=4;spacingRight=4;overflow=hidden;rotatable=0;points=[[0,0.5],[1,0.5]];portConstraint=eastwest;whiteSpace=wrap;html=1;" vertex="1" parent="z43PwPkk5c5M_sg6hUyl-8">
          <mxGeometry y="52" width="205" height="26" as="geometry" />
        </mxCell>
        <mxCell id="z43PwPkk5c5M_sg6hUyl-11" value="NumberOfEnemies : int32" style="text;strokeColor=none;fillColor=none;align=left;verticalAlign=top;spacingLeft=4;spacingRight=4;overflow=hidden;rotatable=0;points=[[0,0.5],[1,0.5]];portConstraint=eastwest;whiteSpace=wrap;html=1;" vertex="1" parent="z43PwPkk5c5M_sg6hUyl-8">
          <mxGeometry y="78" width="205" height="26" as="geometry" />
        </mxCell>
        <mxCell id="z43PwPkk5c5M_sg6hUyl-12" value="LowSpawnInterval : float" style="text;strokeColor=none;fillColor=none;align=left;verticalAlign=top;spacingLeft=4;spacingRight=4;overflow=hidden;rotatable=0;points=[[0,0.5],[1,0.5]];portConstraint=eastwest;whiteSpace=wrap;html=1;" vertex="1" parent="z43PwPkk5c5M_sg6hUyl-8">
          <mxGeometry y="104" width="205" height="26" as="geometry" />
        </mxCell>
        <mxCell id="z43PwPkk5c5M_sg6hUyl-13" value="HighSpawnInterval : float" style="text;strokeColor=none;fillColor=none;align=left;verticalAlign=top;spacingLeft=4;spacingRight=4;overflow=hidden;rotatable=0;points=[[0,0.5],[1,0.5]];portConstraint=eastwest;whiteSpace=wrap;html=1;" vertex="1" parent="z43PwPkk5c5M_sg6hUyl-8">
          <mxGeometry y="130" width="205" height="26" as="geometry" />
        </mxCell>
        <mxCell id="z43PwPkk5c5M_sg6hUyl-19" value="Priority : int32" style="text;strokeColor=none;fillColor=none;align=left;verticalAlign=top;spacingLeft=4;spacingRight=4;overflow=hidden;rotatable=0;points=[[0,0.5],[1,0.5]];portConstraint=eastwest;whiteSpace=wrap;html=1;" vertex="1" parent="z43PwPkk5c5M_sg6hUyl-8">
          <mxGeometry y="156" width="205" height="26" as="geometry" />
        </mxCell>
        <mxCell id="z43PwPkk5c5M_sg6hUyl-15" value="" style="edgeStyle=orthogonalEdgeStyle;rounded=0;orthogonalLoop=1;jettySize=auto;html=1;entryX=-0.006;entryY=0.682;entryDx=0;entryDy=0;entryPerimeter=0;" edge="1" parent="1" source="z43PwPkk5c5M_sg6hUyl-14" target="z43PwPkk5c5M_sg6hUyl-12">
          <mxGeometry relative="1" as="geometry" />
        </mxCell>
        <mxCell id="z43PwPkk5c5M_sg6hUyl-14" value="Used for random spawn intervals" style="shape=note;size=20;whiteSpace=wrap;html=1;strokeColor=#3333FF;" vertex="1" parent="1">
          <mxGeometry x="140" y="107" width="100" height="60" as="geometry" />
        </mxCell>
        <mxCell id="z43PwPkk5c5M_sg6hUyl-16" value="Useful for which special wave to be selected first" style="shape=note;size=20;whiteSpace=wrap;html=1;strokeColor=#3333FF;" vertex="1" parent="1">
          <mxGeometry x="610" y="140" width="100" height="100" as="geometry" />
        </mxCell>
        <mxCell id="z43PwPkk5c5M_sg6hUyl-20" value="" style="endArrow=classic;html=1;rounded=0;exitX=-0.028;exitY=0.59;exitDx=0;exitDy=0;exitPerimeter=0;entryX=1.013;entryY=0.751;entryDx=0;entryDy=0;entryPerimeter=0;" edge="1" parent="1" source="z43PwPkk5c5M_sg6hUyl-16" target="z43PwPkk5c5M_sg6hUyl-19">
          <mxGeometry width="50" height="50" relative="1" as="geometry">
            <mxPoint x="560" y="200" as="sourcePoint" />
            <mxPoint x="530" y="189" as="targetPoint" />
          </mxGeometry>
        </mxCell>
      </root>
    </mxGraphModel>
  </diagram>
</mxfile>
